<svg width="33" height="32" viewBox="0 0 33 32" fill="none" xmlns="http://www.w3.org/2000/svg">
<path fill-rule="evenodd" clip-rule="evenodd" d="M16.6666 2.66675C24.0304 2.66675 30 8.63628 30 16.0001V25.3334C30 26.8062 28.8061 28.0001 27.3333 28.0001H23.3333C21.8605 28.0001 20.6666 26.8062 20.6666 25.3334V18.6667C20.6666 17.1939 21.8605 16.0001 23.3333 16.0001H27.3333C27.3333 10.109 22.5577 5.33341 16.6666 5.33341C10.7756 5.33341 5.99998 10.109 5.99998 16.0001H9.99998C11.4727 16.0001 12.6666 17.1939 12.6666 18.6667V25.3334C12.6666 26.8062 11.4727 28.0001 9.99998 28.0001H5.99998C4.52722 28.0001 3.33331 26.8062 3.33331 25.3334V16.0001C3.33331 8.63628 9.30285 2.66675 16.6666 2.66675ZM5.99998 25.3334V18.6667H9.99998V25.3334H5.99998ZM23.3333 18.6667H27.3333V25.3334H23.3333V18.6667Z" fill="#E7405A"/>
</svg>
