<svg width="32" height="32" viewBox="0 0 32 32" fill="none" xmlns="http://www.w3.org/2000/svg">
<path fill-rule="evenodd" clip-rule="evenodd" d="M25.3334 5.33341H28C29.4728 5.33341 30.6667 6.52732 30.6667 8.00008V12.0001C30.6667 14.9455 28.2788 17.3334 25.3334 17.3334H24.4352C23.1194 20.1033 20.4794 22.1222 17.3334 22.5722V26.6667H20C20.7364 26.6667 21.3334 27.2637 21.3334 28.0001C21.3334 28.7365 20.7364 29.3334 20 29.3334H12C11.2637 29.3334 10.6667 28.7365 10.6667 28.0001C10.6667 27.2637 11.2637 26.6667 12 26.6667H14.6667V22.5722C11.5206 22.1222 8.88071 20.1033 7.56488 17.3334H6.66671C3.72119 17.3334 1.33337 14.9455 1.33337 12.0001V8.00008C1.33337 6.52732 2.52728 5.33341 4.00004 5.33341H6.66671V5.16675C6.66671 3.78604 7.786 2.66675 9.16671 2.66675H22.8334C24.214 2.66675 25.3334 3.78604 25.3334 5.16675V5.33341ZM16 20.0001C12.3181 20.0001 9.33337 17.0153 9.33337 13.3334V5.33341H22.6667V13.3334C22.6667 17.0153 19.6819 20.0001 16 20.0001ZM25.2388 14.6667H25.3334C26.8062 14.6667 28 13.4729 28 12.0001V8.00008H25.3334V13.3334C25.3334 13.7861 25.3011 14.2313 25.2388 14.6667ZM6.76123 14.6667C6.69893 14.2313 6.66671 13.7861 6.66671 13.3334V8.00008H4.00004V12.0001C4.00004 13.4729 5.19395 14.6667 6.66671 14.6667H6.76123Z" fill="#E7405A"/>
</svg>
