<svg width="32" height="32" viewBox="0 0 32 32" fill="none" xmlns="http://www.w3.org/2000/svg">
<path d="M13.3333 18.615C13.3333 19.2306 13.9997 19.6155 14.533 19.3079L19.0656 16.693C19.5992 16.3851 19.5992 15.615 19.0656 15.3071L14.533 12.6922C14.4664 12.6538 14.3977 12.6261 14.3284 12.6084C13.8436 12.4844 13.3333 12.8464 13.3333 13.3851V18.615Z" fill="#E7405A"/>
<path fill-rule="evenodd" clip-rule="evenodd" d="M2.66669 7.99992C2.66669 6.52716 3.86059 5.33325 5.33335 5.33325H26.6667C28.1395 5.33325 29.3334 6.52716 29.3334 7.99992V23.9999C29.3334 25.4727 28.1395 26.6666 26.6667 26.6666H5.33335C3.86059 26.6666 2.66669 25.4727 2.66669 23.9999V7.99992ZM4.66669 7.99992C4.66669 7.63173 4.96517 7.33325 5.33335 7.33325H26.6667C27.0348 7.33325 27.3334 7.63173 27.3334 7.99992V23.9999C27.3334 24.3681 27.0348 24.6666 26.6667 24.6666H5.33335C4.96517 24.6666 4.66669 24.3681 4.66669 23.9999V7.99992Z" fill="#E7405A"/>
</svg>
