<svg width="32" height="32" viewBox="0 0 32 32" fill="none" xmlns="http://www.w3.org/2000/svg">
<path fill-rule="evenodd" clip-rule="evenodd" d="M29.3333 16.0001C29.3333 23.3638 23.3637 29.3334 16 29.3334C8.63616 29.3334 2.66663 23.3638 2.66663 16.0001C2.66663 8.63628 8.63616 2.66675 16 2.66675C23.3637 2.66675 29.3333 8.63628 29.3333 16.0001ZM15.8946 26.635C15.9585 26.6641 15.9892 26.6666 15.9977 26.6667H16.0022C16.0108 26.6666 16.0414 26.6641 16.1053 26.635C16.1857 26.5985 16.3241 26.5165 16.509 26.3425C16.8934 25.9813 17.3605 25.3346 17.8108 24.3338C18.589 22.6045 19.1618 20.1629 19.3008 17.3334H12.6991C12.8381 20.1629 13.4109 22.6045 14.1892 24.3338C14.6394 25.3346 15.1065 25.9813 15.4909 26.3425C15.6758 26.5165 15.8142 26.5985 15.8946 26.635ZM12.6991 14.6667H19.3008C19.1618 11.8372 18.589 9.39565 17.8108 7.66629C17.3605 6.66559 16.8934 6.01892 16.509 5.65763C16.3241 5.48372 16.1857 5.40165 16.1053 5.36511C16.0413 5.33597 16.0106 5.33357 16.0022 5.33341H15.9977C15.9893 5.33357 15.9586 5.33597 15.8946 5.36511C15.8142 5.40165 15.6758 5.48372 15.4909 5.65763C15.1065 6.01892 14.6394 6.66559 14.1892 7.66629C13.4109 9.39565 12.8381 11.8372 12.6991 14.6667ZM20.0294 6.12073C21.1008 8.27991 21.8194 11.2878 21.9704 14.6667H26.5841C26.1 10.7842 23.5292 7.54963 20.0294 6.12073ZM21.9704 17.3334C21.8194 20.7123 21.1008 23.7202 20.0294 25.8794C23.5292 24.4505 26.1 21.2159 26.5841 17.3334H21.9704ZM11.9705 25.8794C10.8992 23.7202 10.1806 20.7123 10.0296 17.3334H5.41581C5.89997 21.2159 8.47076 24.4505 11.9705 25.8794ZM10.0296 14.6667C10.1806 11.2878 10.8992 8.27991 11.9705 6.12073C8.47076 7.54963 5.89997 10.7842 5.41581 14.6667H10.0296Z" fill="#E7405A"/>
</svg>
