<svg width="32" height="32" viewBox="0 0 32 32" fill="none" xmlns="http://www.w3.org/2000/svg">
<g clip-path="url(#clip0_1_136)">
<mask id="mask0_1_136" style="mask-type:luminance" maskUnits="userSpaceOnUse" x="0" y="0" width="32" height="32">
<path d="M32 0H0V32H32V0Z" fill="white"/>
</mask>
<g mask="url(#mask0_1_136)">
<path fill-rule="evenodd" clip-rule="evenodd" d="M29.3333 13.5555L26.6666 15.1111V22.9127C26.6666 23.8611 26.1629 24.7383 25.3436 25.2162L17.3436 29.8828C16.5133 30.3671 15.4866 30.3671 14.6562 29.8828L6.65631 25.2162C5.83706 24.7383 5.3333 23.8611 5.3333 22.9127V15.1111L1.97431 13.1516C1.0923 12.6372 1.0923 11.3627 1.97431 10.8482L14.6562 3.45041C15.4866 2.96607 16.5133 2.96607 17.3436 3.45041L31.3385 11.6141C31.7481 11.853 32 12.2916 32 12.7658V19.9999C32 20.7363 31.403 21.3332 30.6666 21.3332C29.9302 21.3332 29.3333 20.7363 29.3333 19.9999V13.5555ZM7.99997 16.6666V22.9127L16 27.5794L24 22.9127V16.6666L17.3436 20.5495C16.5133 21.0338 15.4866 21.0338 14.6562 20.5495L7.99997 16.6666ZM26.7076 11.9999L16 5.75382L5.29233 11.9999L16 18.246L26.7076 11.9999Z" fill="#E7405A"/>
</g>
</g>
<defs>
<clipPath id="clip0_1_136">
<rect width="32" height="32" fill="white"/>
</clipPath>
</defs>
</svg>
