<svg width="33" height="32" viewBox="0 0 33 32" fill="none" xmlns="http://www.w3.org/2000/svg">
<g clip-path="url(#clip0_1_166)">
<mask id="mask0_1_166" style="mask-type:luminance" maskUnits="userSpaceOnUse" x="0" y="0" width="33" height="32">
<path d="M32.3334 0H0.333374V32H32.3334V0Z" fill="white"/>
</mask>
<g mask="url(#mask0_1_166)">
<path fill-rule="evenodd" clip-rule="evenodd" d="M9.66672 14C12.4281 14 14.6667 11.7614 14.6667 9C14.6667 6.23857 12.4281 4 9.66672 4C6.90529 4 4.66672 6.23857 4.66672 9C4.66672 11.7614 6.90529 14 9.66672 14ZM9.66672 11.3333C10.9554 11.3333 12.0001 10.2887 12.0001 9C12.0001 7.71133 10.9554 6.66667 9.66672 6.66667C8.37805 6.66667 7.33338 7.71133 7.33338 9C7.33338 10.2887 8.37805 11.3333 9.66672 11.3333Z" fill="#E7405A"/>
<path fill-rule="evenodd" clip-rule="evenodd" d="M28 9C28 11.7614 25.7615 14 23 14C20.2386 14 18 11.7614 18 9C18 6.23857 20.2386 4 23 4C25.7615 4 28 6.23857 28 9ZM25.3334 9C25.3334 10.2887 24.2887 11.3333 23 11.3333C21.7114 11.3333 20.6667 10.2887 20.6667 9C20.6667 7.71133 21.7114 6.66667 23 6.66667C24.2887 6.66667 25.3334 7.71133 25.3334 9Z" fill="#E7405A"/>
<path fill-rule="evenodd" clip-rule="evenodd" d="M20.945 18.9017C21.6043 18.748 22.2922 18.6667 23 18.6667C25.6424 18.6667 28.0166 19.8023 29.6667 21.6204V24H21.6667C21.6667 24.9715 21.407 25.8823 20.9532 26.6667H29.6667C31.1395 26.6667 32.3334 25.4728 32.3334 24V21.5557C32.3334 20.9779 32.1532 20.4091 31.7722 19.9748C29.6339 17.5381 26.4966 16 23 16C21.5688 16 20.1978 16.2577 18.9307 16.7293C19.471 17.1872 19.9766 17.6843 20.4431 18.2159C20.6351 18.4347 20.8018 18.6645 20.945 18.9017Z" fill="#E7405A"/>
<path fill-rule="evenodd" clip-rule="evenodd" d="M16.3334 26.6667C17.8062 26.6667 19 25.4728 19 24V21.5557C19 20.9779 18.8199 20.4091 18.4388 19.9748C17.8164 19.2656 17.1094 18.6324 16.3334 18.0912C14.4436 16.7731 12.1455 16 9.66671 16C6.17015 16 3.03285 17.5381 0.894585 19.9748C0.513502 20.4091 0.333374 20.9779 0.333374 21.5557V24C0.333374 25.4728 1.52728 26.6667 3.00004 26.6667H16.3334ZM9.66671 18.6667C12.3092 18.6667 14.6832 19.8023 16.3334 21.6204V24H3.00004V21.6204C4.65015 19.8023 7.02427 18.6667 9.66671 18.6667ZM3.00031 21.5489C3.00029 21.5491 3.00035 21.5485 3.00031 21.5489V21.5489Z" fill="#E7405A"/>
</g>
</g>
<defs>
<clipPath id="clip0_1_166">
<rect width="32" height="32" fill="white" transform="translate(0.333374)"/>
</clipPath>
</defs>
</svg>
