<svg width="32" height="32" viewBox="0 0 32 32" fill="none" xmlns="http://www.w3.org/2000/svg">
<path d="M22 12.6666C22.5207 13.1874 22.5207 14.0316 22 14.5523L15.6095 20.9428C15.0888 21.4635 14.2445 21.4635 13.7239 20.9428L10.6667 17.8856C10.146 17.3649 10.146 16.5207 10.6667 16C11.1874 15.4793 12.0316 15.4793 12.5523 16L14.6667 18.1144L20.1144 12.6666C20.1795 12.6016 20.2496 12.5446 20.3236 12.4958C20.8411 12.1541 21.5444 12.211 22 12.6666Z" fill="#E7405A"/>
<path fill-rule="evenodd" clip-rule="evenodd" d="M5.33332 6.66675H7.99999V5.00008C7.99999 4.26369 8.59695 3.66675 9.33332 3.66675C10.0697 3.66675 10.6667 4.26369 10.6667 5.00008V6.66675H21.3333V5.00008C21.3333 4.26369 21.9303 3.66675 22.6667 3.66675C23.4031 3.66675 24 4.26369 24 5.00008V6.66675H26.6667C28.1395 6.66675 29.3333 7.86065 29.3333 9.33342V25.3334C29.3333 26.8062 28.1395 28.0001 26.6667 28.0001H5.33332C3.86056 28.0001 2.66666 26.8062 2.66666 25.3334V9.33342C2.66666 7.86065 3.86056 6.66675 5.33332 6.66675ZM5.33332 25.3334V9.33342H26.6667V25.3334H5.33332Z" fill="#E7405A"/>
</svg>
